<mxfile host="Electron" modified="2023-07-17T19:43:23.787Z" agent="Mozilla/5.0 (Windows NT 10.0; Win64; x64) AppleWebKit/537.36 (KHTML, like Gecko) draw.io/21.6.1 Chrome/112.0.5615.204 Electron/24.6.1 Safari/537.36" etag="rxSGu0-UM3-7acAAzSL5" version="21.6.1" type="device">
  <diagram name="Сторінка-1" id="AxiPt45qJVt2WfJqGVkG">
    <mxGraphModel dx="2072" dy="1228" grid="1" gridSize="10" guides="1" tooltips="1" connect="1" arrows="1" fold="1" page="1" pageScale="1" pageWidth="1569" pageHeight="1454" math="0" shadow="0">
      <root>
        <mxCell id="0" />
        <mxCell id="1" parent="0" />
        <mxCell id="LnaQQmRgP3tKI7qRfTg0-1" value="AdressBook" style="swimlane;fontStyle=1;align=center;verticalAlign=top;childLayout=stackLayout;horizontal=1;startSize=30;horizontalStack=0;resizeParent=1;resizeParentMax=0;resizeLast=0;collapsible=1;marginBottom=0;whiteSpace=wrap;html=1;direction=east;rounded=1;" parent="1" vertex="1">
          <mxGeometry x="320" y="420" width="240" height="80" as="geometry">
            <mxRectangle x="320" y="240" width="130" height="30" as="alternateBounds" />
          </mxGeometry>
        </mxCell>
        <mxCell id="LnaQQmRgP3tKI7qRfTg0-3" value="" style="line;strokeWidth=1;fillColor=none;align=left;verticalAlign=middle;spacingTop=-1;spacingLeft=3;spacingRight=3;rotatable=0;labelPosition=right;points=[];portConstraint=eastwest;strokeColor=inherit;rounded=1;" parent="LnaQQmRgP3tKI7qRfTg0-1" vertex="1">
          <mxGeometry y="30" width="240" as="geometry" />
        </mxCell>
        <mxCell id="LnaQQmRgP3tKI7qRfTg0-5" value="+ add_record&lt;span style=&quot;background-color: initial;&quot;&gt;(Record): None&lt;/span&gt;" style="text;strokeColor=none;fillColor=none;align=left;verticalAlign=top;spacingLeft=4;spacingRight=4;overflow=hidden;rotatable=0;points=[[0,0.5],[1,0.5]];portConstraint=eastwest;whiteSpace=wrap;html=1;rounded=1;" parent="LnaQQmRgP3tKI7qRfTg0-1" vertex="1">
          <mxGeometry y="30" width="240" height="24" as="geometry" />
        </mxCell>
        <mxCell id="LnaQQmRgP3tKI7qRfTg0-4" value="+ iterator&lt;span style=&quot;background-color: initial;&quot;&gt;(int): str&lt;/span&gt;" style="text;strokeColor=none;fillColor=none;align=left;verticalAlign=top;spacingLeft=4;spacingRight=4;overflow=hidden;rotatable=0;points=[[0,0.5],[1,0.5]];portConstraint=eastwest;whiteSpace=wrap;html=1;rounded=1;" parent="LnaQQmRgP3tKI7qRfTg0-1" vertex="1">
          <mxGeometry y="54" width="240" height="26" as="geometry" />
        </mxCell>
        <mxCell id="LnaQQmRgP3tKI7qRfTg0-12" value="Record" style="swimlane;fontStyle=1;align=center;verticalAlign=top;childLayout=stackLayout;horizontal=1;startSize=30;horizontalStack=0;resizeParent=1;resizeParentMax=0;resizeLast=0;collapsible=1;marginBottom=0;whiteSpace=wrap;html=1;rounded=1;" parent="1" vertex="1">
          <mxGeometry x="320" y="560" width="240" height="350" as="geometry">
            <mxRectangle x="330" y="400" width="90" height="30" as="alternateBounds" />
          </mxGeometry>
        </mxCell>
        <mxCell id="LnaQQmRgP3tKI7qRfTg0-13" value="+ name&lt;span style=&quot;background-color: initial;&quot;&gt;: Name&lt;/span&gt;" style="text;strokeColor=none;fillColor=none;align=left;verticalAlign=top;spacingLeft=4;spacingRight=4;overflow=hidden;rotatable=0;points=[[0,0.5],[1,0.5]];portConstraint=eastwest;whiteSpace=wrap;html=1;rounded=1;" parent="LnaQQmRgP3tKI7qRfTg0-12" vertex="1">
          <mxGeometry y="30" width="240" height="26" as="geometry" />
        </mxCell>
        <mxCell id="FLN5HcbIswn5sLi46URB-1" value="+&amp;nbsp;phones&lt;span style=&quot;background-color: initial;&quot;&gt;: list[Phone]&lt;/span&gt;" style="text;strokeColor=none;fillColor=none;align=left;verticalAlign=top;spacingLeft=4;spacingRight=4;overflow=hidden;rotatable=0;points=[[0,0.5],[1,0.5]];portConstraint=eastwest;whiteSpace=wrap;html=1;rounded=1;" parent="LnaQQmRgP3tKI7qRfTg0-12" vertex="1">
          <mxGeometry y="56" width="240" height="26" as="geometry" />
        </mxCell>
        <mxCell id="FLN5HcbIswn5sLi46URB-4" value="+&amp;nbsp;birthday&lt;span style=&quot;background-color: initial;&quot;&gt;:&amp;nbsp;&lt;/span&gt;Birthday" style="text;strokeColor=none;fillColor=none;align=left;verticalAlign=top;spacingLeft=4;spacingRight=4;overflow=hidden;rotatable=0;points=[[0,0.5],[1,0.5]];portConstraint=eastwest;whiteSpace=wrap;html=1;rounded=1;" parent="LnaQQmRgP3tKI7qRfTg0-12" vertex="1">
          <mxGeometry y="82" width="240" height="26" as="geometry" />
        </mxCell>
        <mxCell id="FLN5HcbIswn5sLi46URB-5" value="+&amp;nbsp;email&lt;span style=&quot;background-color: initial;&quot;&gt;:&amp;nbsp;&lt;/span&gt;Email" style="text;strokeColor=none;fillColor=none;align=left;verticalAlign=top;spacingLeft=4;spacingRight=4;overflow=hidden;rotatable=0;points=[[0,0.5],[1,0.5]];portConstraint=eastwest;whiteSpace=wrap;html=1;rounded=1;" parent="LnaQQmRgP3tKI7qRfTg0-12" vertex="1">
          <mxGeometry y="108" width="240" height="26" as="geometry" />
        </mxCell>
        <mxCell id="FLN5HcbIswn5sLi46URB-6" value="+&amp;nbsp;address&lt;span style=&quot;background-color: initial;&quot;&gt;:&amp;nbsp;&lt;/span&gt;Address" style="text;strokeColor=none;fillColor=none;align=left;verticalAlign=top;spacingLeft=4;spacingRight=4;overflow=hidden;rotatable=0;points=[[0,0.5],[1,0.5]];portConstraint=eastwest;whiteSpace=wrap;html=1;rounded=1;" parent="LnaQQmRgP3tKI7qRfTg0-12" vertex="1">
          <mxGeometry y="134" width="240" height="26" as="geometry" />
        </mxCell>
        <mxCell id="LnaQQmRgP3tKI7qRfTg0-14" value="" style="line;strokeWidth=1;fillColor=none;align=left;verticalAlign=middle;spacingTop=-1;spacingLeft=3;spacingRight=3;rotatable=0;labelPosition=right;points=[];portConstraint=eastwest;strokeColor=inherit;rounded=1;" parent="LnaQQmRgP3tKI7qRfTg0-12" vertex="1">
          <mxGeometry y="160" width="240" height="8" as="geometry" />
        </mxCell>
        <mxCell id="LnaQQmRgP3tKI7qRfTg0-15" value="+ add_phones(list[Phone]&lt;span style=&quot;background-color: initial;&quot;&gt;): None&lt;/span&gt;" style="text;strokeColor=none;fillColor=none;align=left;verticalAlign=top;spacingLeft=4;spacingRight=4;overflow=hidden;rotatable=0;points=[[0,0.5],[1,0.5]];portConstraint=eastwest;whiteSpace=wrap;html=1;rounded=1;" parent="LnaQQmRgP3tKI7qRfTg0-12" vertex="1">
          <mxGeometry y="168" width="240" height="26" as="geometry" />
        </mxCell>
        <mxCell id="FLN5HcbIswn5sLi46URB-2" value="+ change_phone(Phone, Phone): None" style="text;strokeColor=none;fillColor=none;align=left;verticalAlign=top;spacingLeft=4;spacingRight=4;overflow=hidden;rotatable=0;points=[[0,0.5],[1,0.5]];portConstraint=eastwest;whiteSpace=wrap;html=1;rounded=1;" parent="LnaQQmRgP3tKI7qRfTg0-12" vertex="1">
          <mxGeometry y="194" width="240" height="26" as="geometry" />
        </mxCell>
        <mxCell id="FLN5HcbIswn5sLi46URB-8" value="+ remove_contacts(list[Phone]): None" style="text;strokeColor=none;fillColor=none;align=left;verticalAlign=top;spacingLeft=4;spacingRight=4;overflow=hidden;rotatable=0;points=[[0,0.5],[1,0.5]];portConstraint=eastwest;whiteSpace=wrap;html=1;rounded=1;" parent="LnaQQmRgP3tKI7qRfTg0-12" vertex="1">
          <mxGeometry y="220" width="240" height="26" as="geometry" />
        </mxCell>
        <mxCell id="FLN5HcbIswn5sLi46URB-19" value="+ add_birthday(Birthday): None" style="text;strokeColor=none;fillColor=none;align=left;verticalAlign=top;spacingLeft=4;spacingRight=4;overflow=hidden;rotatable=0;points=[[0,0.5],[1,0.5]];portConstraint=eastwest;whiteSpace=wrap;html=1;rounded=1;" parent="LnaQQmRgP3tKI7qRfTg0-12" vertex="1">
          <mxGeometry y="246" width="240" height="26" as="geometry" />
        </mxCell>
        <mxCell id="FLN5HcbIswn5sLi46URB-20" value="+ add_email(Email): None" style="text;strokeColor=none;fillColor=none;align=left;verticalAlign=top;spacingLeft=4;spacingRight=4;overflow=hidden;rotatable=0;points=[[0,0.5],[1,0.5]];portConstraint=eastwest;whiteSpace=wrap;html=1;rounded=1;" parent="LnaQQmRgP3tKI7qRfTg0-12" vertex="1">
          <mxGeometry y="272" width="240" height="26" as="geometry" />
        </mxCell>
        <mxCell id="FLN5HcbIswn5sLi46URB-36" value="+ add_address(Address): None" style="text;strokeColor=none;fillColor=none;align=left;verticalAlign=top;spacingLeft=4;spacingRight=4;overflow=hidden;rotatable=0;points=[[0,0.5],[1,0.5]];portConstraint=eastwest;whiteSpace=wrap;html=1;rounded=1;" parent="LnaQQmRgP3tKI7qRfTg0-12" vertex="1">
          <mxGeometry y="298" width="240" height="26" as="geometry" />
        </mxCell>
        <mxCell id="FLN5HcbIswn5sLi46URB-37" value="+ days_to_birthday(Birthday): int" style="text;strokeColor=none;fillColor=none;align=left;verticalAlign=top;spacingLeft=4;spacingRight=4;overflow=hidden;rotatable=0;points=[[0,0.5],[1,0.5]];portConstraint=eastwest;whiteSpace=wrap;html=1;rounded=1;" parent="LnaQQmRgP3tKI7qRfTg0-12" vertex="1">
          <mxGeometry y="324" width="240" height="26" as="geometry" />
        </mxCell>
        <mxCell id="FLN5HcbIswn5sLi46URB-43" value="UserDict" style="swimlane;fontStyle=1;align=center;verticalAlign=top;childLayout=stackLayout;horizontal=1;startSize=0;horizontalStack=0;resizeParent=1;resizeParentMax=0;resizeLast=0;collapsible=1;marginBottom=0;whiteSpace=wrap;html=1;rounded=1;" parent="1" vertex="1">
          <mxGeometry x="360" y="360" width="160" height="30" as="geometry">
            <mxRectangle x="360" y="180" width="90" height="30" as="alternateBounds" />
          </mxGeometry>
        </mxCell>
        <mxCell id="FLN5HcbIswn5sLi46URB-46" value="Field" style="swimlane;fontStyle=1;align=center;verticalAlign=top;childLayout=stackLayout;horizontal=1;startSize=26;horizontalStack=0;resizeParent=1;resizeParentMax=0;resizeLast=0;collapsible=1;marginBottom=0;whiteSpace=wrap;html=1;rounded=1;" parent="1" vertex="1">
          <mxGeometry x="360" y="940" width="160" height="86" as="geometry" />
        </mxCell>
        <mxCell id="FLN5HcbIswn5sLi46URB-47" value="+ value: type" style="text;strokeColor=none;fillColor=none;align=left;verticalAlign=top;spacingLeft=4;spacingRight=4;overflow=hidden;rotatable=0;points=[[0,0.5],[1,0.5]];portConstraint=eastwest;whiteSpace=wrap;html=1;rounded=1;" parent="FLN5HcbIswn5sLi46URB-46" vertex="1">
          <mxGeometry y="26" width="160" height="26" as="geometry" />
        </mxCell>
        <mxCell id="FLN5HcbIswn5sLi46URB-48" value="" style="line;strokeWidth=1;fillColor=none;align=left;verticalAlign=middle;spacingTop=-1;spacingLeft=3;spacingRight=3;rotatable=0;labelPosition=right;points=[];portConstraint=eastwest;strokeColor=inherit;rounded=1;" parent="FLN5HcbIswn5sLi46URB-46" vertex="1">
          <mxGeometry y="52" width="160" height="8" as="geometry" />
        </mxCell>
        <mxCell id="FLN5HcbIswn5sLi46URB-49" value="+ method(type): type" style="text;strokeColor=none;fillColor=none;align=left;verticalAlign=top;spacingLeft=4;spacingRight=4;overflow=hidden;rotatable=0;points=[[0,0.5],[1,0.5]];portConstraint=eastwest;whiteSpace=wrap;html=1;rounded=1;" parent="FLN5HcbIswn5sLi46URB-46" vertex="1">
          <mxGeometry y="60" width="160" height="26" as="geometry" />
        </mxCell>
        <mxCell id="FLN5HcbIswn5sLi46URB-50" value="Name" style="swimlane;fontStyle=1;align=center;verticalAlign=top;childLayout=stackLayout;horizontal=1;startSize=26;horizontalStack=0;resizeParent=1;resizeParentMax=0;resizeLast=0;collapsible=1;marginBottom=0;whiteSpace=wrap;html=1;rounded=1;" parent="1" vertex="1">
          <mxGeometry x="360" y="1040" width="160" height="86" as="geometry" />
        </mxCell>
        <mxCell id="FLN5HcbIswn5sLi46URB-51" value="- value: type" style="text;strokeColor=none;fillColor=none;align=left;verticalAlign=top;spacingLeft=4;spacingRight=4;overflow=hidden;rotatable=0;points=[[0,0.5],[1,0.5]];portConstraint=eastwest;whiteSpace=wrap;html=1;rounded=1;" parent="FLN5HcbIswn5sLi46URB-50" vertex="1">
          <mxGeometry y="26" width="160" height="26" as="geometry" />
        </mxCell>
        <mxCell id="FLN5HcbIswn5sLi46URB-52" value="" style="line;strokeWidth=1;fillColor=none;align=left;verticalAlign=middle;spacingTop=-1;spacingLeft=3;spacingRight=3;rotatable=0;labelPosition=right;points=[];portConstraint=eastwest;strokeColor=inherit;rounded=1;" parent="FLN5HcbIswn5sLi46URB-50" vertex="1">
          <mxGeometry y="52" width="160" height="8" as="geometry" />
        </mxCell>
        <mxCell id="FLN5HcbIswn5sLi46URB-53" value="+ value(str): str" style="text;strokeColor=none;fillColor=none;align=left;verticalAlign=top;spacingLeft=4;spacingRight=4;overflow=hidden;rotatable=0;points=[[0,0.5],[1,0.5]];portConstraint=eastwest;whiteSpace=wrap;html=1;rounded=1;" parent="FLN5HcbIswn5sLi46URB-50" vertex="1">
          <mxGeometry y="60" width="160" height="26" as="geometry" />
        </mxCell>
        <mxCell id="FLN5HcbIswn5sLi46URB-54" value="Birthday" style="swimlane;fontStyle=1;align=center;verticalAlign=top;childLayout=stackLayout;horizontal=1;startSize=26;horizontalStack=0;resizeParent=1;resizeParentMax=0;resizeLast=0;collapsible=1;marginBottom=0;whiteSpace=wrap;html=1;rounded=1;" parent="1" vertex="1">
          <mxGeometry x="360" y="1140" width="160" height="86" as="geometry" />
        </mxCell>
        <mxCell id="FLN5HcbIswn5sLi46URB-55" value="- value: type" style="text;strokeColor=none;fillColor=none;align=left;verticalAlign=top;spacingLeft=4;spacingRight=4;overflow=hidden;rotatable=0;points=[[0,0.5],[1,0.5]];portConstraint=eastwest;whiteSpace=wrap;html=1;rounded=1;" parent="FLN5HcbIswn5sLi46URB-54" vertex="1">
          <mxGeometry y="26" width="160" height="26" as="geometry" />
        </mxCell>
        <mxCell id="FLN5HcbIswn5sLi46URB-56" value="" style="line;strokeWidth=1;fillColor=none;align=left;verticalAlign=middle;spacingTop=-1;spacingLeft=3;spacingRight=3;rotatable=0;labelPosition=right;points=[];portConstraint=eastwest;strokeColor=inherit;rounded=1;" parent="FLN5HcbIswn5sLi46URB-54" vertex="1">
          <mxGeometry y="52" width="160" height="8" as="geometry" />
        </mxCell>
        <mxCell id="FLN5HcbIswn5sLi46URB-57" value="+ value(str): datatime" style="text;strokeColor=none;fillColor=none;align=left;verticalAlign=top;spacingLeft=4;spacingRight=4;overflow=hidden;rotatable=0;points=[[0,0.5],[1,0.5]];portConstraint=eastwest;whiteSpace=wrap;html=1;rounded=1;" parent="FLN5HcbIswn5sLi46URB-54" vertex="1">
          <mxGeometry y="60" width="160" height="26" as="geometry" />
        </mxCell>
        <mxCell id="FLN5HcbIswn5sLi46URB-59" value="Email" style="swimlane;fontStyle=1;align=center;verticalAlign=top;childLayout=stackLayout;horizontal=1;startSize=26;horizontalStack=0;resizeParent=1;resizeParentMax=0;resizeLast=0;collapsible=1;marginBottom=0;whiteSpace=wrap;html=1;rounded=1;" parent="1" vertex="1">
          <mxGeometry x="360" y="1240" width="160" height="86" as="geometry" />
        </mxCell>
        <mxCell id="FLN5HcbIswn5sLi46URB-60" value="- value: type" style="text;strokeColor=none;fillColor=none;align=left;verticalAlign=top;spacingLeft=4;spacingRight=4;overflow=hidden;rotatable=0;points=[[0,0.5],[1,0.5]];portConstraint=eastwest;whiteSpace=wrap;html=1;rounded=1;" parent="FLN5HcbIswn5sLi46URB-59" vertex="1">
          <mxGeometry y="26" width="160" height="26" as="geometry" />
        </mxCell>
        <mxCell id="FLN5HcbIswn5sLi46URB-61" value="" style="line;strokeWidth=1;fillColor=none;align=left;verticalAlign=middle;spacingTop=-1;spacingLeft=3;spacingRight=3;rotatable=0;labelPosition=right;points=[];portConstraint=eastwest;strokeColor=inherit;rounded=1;" parent="FLN5HcbIswn5sLi46URB-59" vertex="1">
          <mxGeometry y="52" width="160" height="8" as="geometry" />
        </mxCell>
        <mxCell id="FLN5HcbIswn5sLi46URB-62" value="+ value(str): str" style="text;strokeColor=none;fillColor=none;align=left;verticalAlign=top;spacingLeft=4;spacingRight=4;overflow=hidden;rotatable=0;points=[[0,0.5],[1,0.5]];portConstraint=eastwest;whiteSpace=wrap;html=1;rounded=1;" parent="FLN5HcbIswn5sLi46URB-59" vertex="1">
          <mxGeometry y="60" width="160" height="26" as="geometry" />
        </mxCell>
        <mxCell id="FLN5HcbIswn5sLi46URB-65" value="Address" style="swimlane;fontStyle=1;align=center;verticalAlign=top;childLayout=stackLayout;horizontal=1;startSize=26;horizontalStack=0;resizeParent=1;resizeParentMax=0;resizeLast=0;collapsible=1;marginBottom=0;whiteSpace=wrap;html=1;rounded=1;" parent="1" vertex="1">
          <mxGeometry x="360" y="1340" width="160" height="86" as="geometry" />
        </mxCell>
        <mxCell id="FLN5HcbIswn5sLi46URB-66" value="- value: type" style="text;strokeColor=none;fillColor=none;align=left;verticalAlign=top;spacingLeft=4;spacingRight=4;overflow=hidden;rotatable=0;points=[[0,0.5],[1,0.5]];portConstraint=eastwest;whiteSpace=wrap;html=1;rounded=1;" parent="FLN5HcbIswn5sLi46URB-65" vertex="1">
          <mxGeometry y="26" width="160" height="26" as="geometry" />
        </mxCell>
        <mxCell id="FLN5HcbIswn5sLi46URB-67" value="" style="line;strokeWidth=1;fillColor=none;align=left;verticalAlign=middle;spacingTop=-1;spacingLeft=3;spacingRight=3;rotatable=0;labelPosition=right;points=[];portConstraint=eastwest;strokeColor=inherit;rounded=1;" parent="FLN5HcbIswn5sLi46URB-65" vertex="1">
          <mxGeometry y="52" width="160" height="8" as="geometry" />
        </mxCell>
        <mxCell id="FLN5HcbIswn5sLi46URB-68" value="+ value(str): str" style="text;strokeColor=none;fillColor=none;align=left;verticalAlign=top;spacingLeft=4;spacingRight=4;overflow=hidden;rotatable=0;points=[[0,0.5],[1,0.5]];portConstraint=eastwest;whiteSpace=wrap;html=1;rounded=1;" parent="FLN5HcbIswn5sLi46URB-65" vertex="1">
          <mxGeometry y="60" width="160" height="26" as="geometry" />
        </mxCell>
        <mxCell id="FLN5HcbIswn5sLi46URB-69" value="def hello()&amp;nbsp;" style="html=1;whiteSpace=wrap;rounded=1;" parent="1" vertex="1">
          <mxGeometry x="140" y="520" width="110" height="30" as="geometry" />
        </mxCell>
        <mxCell id="FLN5HcbIswn5sLi46URB-70" value="def add_phone()&amp;nbsp;" style="html=1;whiteSpace=wrap;rounded=1;" parent="1" vertex="1">
          <mxGeometry x="140" y="560" width="110" height="30" as="geometry" />
        </mxCell>
        <mxCell id="FLN5HcbIswn5sLi46URB-71" value="def change()&amp;nbsp;" style="html=1;whiteSpace=wrap;rounded=1;" parent="1" vertex="1">
          <mxGeometry x="140" y="600" width="110" height="30" as="geometry" />
        </mxCell>
        <mxCell id="FLN5HcbIswn5sLi46URB-72" value="def phone()&amp;nbsp;" style="html=1;whiteSpace=wrap;rounded=1;" parent="1" vertex="1">
          <mxGeometry x="140" y="640" width="110" height="30" as="geometry" />
        </mxCell>
        <mxCell id="FLN5HcbIswn5sLi46URB-73" value="def delete()&amp;nbsp;" style="html=1;whiteSpace=wrap;rounded=1;" parent="1" vertex="1">
          <mxGeometry x="140" y="680" width="110" height="30" as="geometry" />
        </mxCell>
        <mxCell id="FLN5HcbIswn5sLi46URB-74" value="def add_birthday()&amp;nbsp;" style="html=1;whiteSpace=wrap;rounded=1;" parent="1" vertex="1">
          <mxGeometry x="140" y="720" width="110" height="30" as="geometry" />
        </mxCell>
        <mxCell id="FLN5HcbIswn5sLi46URB-75" value="def add_email()&amp;nbsp;" style="html=1;whiteSpace=wrap;rounded=1;" parent="1" vertex="1">
          <mxGeometry x="140" y="760" width="110" height="30" as="geometry" />
        </mxCell>
        <mxCell id="FLN5HcbIswn5sLi46URB-76" value="def add_address()&amp;nbsp;" style="html=1;whiteSpace=wrap;rounded=1;" parent="1" vertex="1">
          <mxGeometry x="140" y="800" width="110" height="30" as="geometry" />
        </mxCell>
        <mxCell id="FLN5HcbIswn5sLi46URB-77" value="def next_birthdays()&amp;nbsp;" style="html=1;whiteSpace=wrap;rounded=1;" parent="1" vertex="1">
          <mxGeometry x="140" y="840" width="110" height="30" as="geometry" />
        </mxCell>
        <mxCell id="FLN5HcbIswn5sLi46URB-78" value="def show_all()&amp;nbsp;" style="html=1;whiteSpace=wrap;rounded=1;" parent="1" vertex="1">
          <mxGeometry x="140" y="880" width="110" height="30" as="geometry" />
        </mxCell>
        <mxCell id="FLN5HcbIswn5sLi46URB-79" value="def search()&amp;nbsp;" style="html=1;whiteSpace=wrap;rounded=1;" parent="1" vertex="1">
          <mxGeometry x="140" y="920" width="110" height="30" as="geometry" />
        </mxCell>
        <mxCell id="FLN5HcbIswn5sLi46URB-80" value="def exit_save_change()&amp;nbsp;" style="html=1;whiteSpace=wrap;rounded=1;" parent="1" vertex="1">
          <mxGeometry x="10" y="290" width="120" height="30" as="geometry" />
        </mxCell>
        <mxCell id="FLN5HcbIswn5sLi46URB-81" value="def save_contacts_to_file()&amp;nbsp;" style="html=1;whiteSpace=wrap;rounded=1;" parent="1" vertex="1">
          <mxGeometry x="10" y="340" width="130" height="30" as="geometry" />
        </mxCell>
        <mxCell id="FLN5HcbIswn5sLi46URB-82" value="def open_contacts_from_file()&amp;nbsp;" style="html=1;whiteSpace=wrap;rounded=1;" parent="1" vertex="1">
          <mxGeometry x="100" y="480" width="150" height="30" as="geometry" />
        </mxCell>
        <mxCell id="FLN5HcbIswn5sLi46URB-83" value="def decor_error()&amp;nbsp;" style="html=1;whiteSpace=wrap;rounded=1;" parent="1" vertex="1">
          <mxGeometry x="10" y="720" width="80" height="30" as="geometry" />
        </mxCell>
        <mxCell id="FLN5HcbIswn5sLi46URB-102" value="def main()&amp;nbsp;" style="html=1;whiteSpace=wrap;rounded=1;" parent="1" vertex="1">
          <mxGeometry x="170" y="250" width="110" height="30" as="geometry" />
        </mxCell>
        <mxCell id="FLN5HcbIswn5sLi46URB-103" value="def parser_command()&amp;nbsp;" style="html=1;whiteSpace=wrap;rounded=1;" parent="1" vertex="1">
          <mxGeometry x="140" y="440" width="110" height="30" as="geometry" />
        </mxCell>
        <mxCell id="5W4om4V6GYRjGzkZguZI-2" value="addressbook" style="shape=module;align=left;spacingLeft=20;align=center;verticalAlign=top;whiteSpace=wrap;html=1;jettyWidth=19;jettyHeight=9;rounded=1;" vertex="1" parent="1">
          <mxGeometry x="300" y="200" width="100" height="30" as="geometry" />
        </mxCell>
        <mxCell id="5W4om4V6GYRjGzkZguZI-3" style="edgeStyle=orthogonalEdgeStyle;rounded=1;orthogonalLoop=1;jettySize=auto;html=1;exitX=0.5;exitY=1;exitDx=0;exitDy=0;" edge="1" parent="1" source="5W4om4V6GYRjGzkZguZI-2" target="5W4om4V6GYRjGzkZguZI-2">
          <mxGeometry relative="1" as="geometry" />
        </mxCell>
        <mxCell id="5W4om4V6GYRjGzkZguZI-4" value="" style="endArrow=open;html=1;endSize=12;startArrow=diamondThin;startSize=14;startFill=0;edgeStyle=orthogonalEdgeStyle;align=left;verticalAlign=bottom;rounded=1;entryX=0.5;entryY=0;entryDx=0;entryDy=0;" edge="1" parent="1" target="LnaQQmRgP3tKI7qRfTg0-12">
          <mxGeometry x="-0.0524" relative="1" as="geometry">
            <mxPoint x="440" y="500" as="sourcePoint" />
            <mxPoint x="730" y="500" as="targetPoint" />
            <Array as="points">
              <mxPoint x="440" y="520" />
              <mxPoint x="440" y="520" />
            </Array>
            <mxPoint as="offset" />
          </mxGeometry>
        </mxCell>
        <mxCell id="5W4om4V6GYRjGzkZguZI-8" value="" style="endArrow=open;endFill=1;endSize=12;html=1;rounded=1;exitX=0.5;exitY=0;exitDx=0;exitDy=0;entryX=0.5;entryY=1;entryDx=0;entryDy=0;" edge="1" parent="1" source="LnaQQmRgP3tKI7qRfTg0-1" target="FLN5HcbIswn5sLi46URB-43">
          <mxGeometry width="160" relative="1" as="geometry">
            <mxPoint x="570" y="500" as="sourcePoint" />
            <mxPoint x="730" y="500" as="targetPoint" />
          </mxGeometry>
        </mxCell>
        <mxCell id="5W4om4V6GYRjGzkZguZI-11" value="" style="endArrow=open;endFill=1;endSize=12;html=1;rounded=1;entryX=0.004;entryY=0.206;entryDx=0;entryDy=0;entryPerimeter=0;exitX=-0.01;exitY=0.532;exitDx=0;exitDy=0;exitPerimeter=0;" edge="1" parent="1" source="5W4om4V6GYRjGzkZguZI-14" target="FLN5HcbIswn5sLi46URB-48">
          <mxGeometry width="160" relative="1" as="geometry">
            <mxPoint x="325" y="1220" as="sourcePoint" />
            <mxPoint x="730" y="1200" as="targetPoint" />
            <Array as="points">
              <mxPoint x="300" y="1220" />
              <mxPoint x="300" y="993" />
            </Array>
          </mxGeometry>
        </mxCell>
        <mxCell id="5W4om4V6GYRjGzkZguZI-14" value="" style="shape=partialRectangle;whiteSpace=wrap;html=1;bottom=0;right=0;fillColor=none;rounded=1;" vertex="1" parent="1">
          <mxGeometry x="320" y="1060" width="40" height="300" as="geometry" />
        </mxCell>
        <mxCell id="5W4om4V6GYRjGzkZguZI-15" value="" style="shape=partialRectangle;whiteSpace=wrap;html=1;right=0;top=0;bottom=0;fillColor=none;routingCenterX=-0.5;direction=south;rounded=1;" vertex="1" parent="1">
          <mxGeometry x="320" y="1160" width="40" height="10" as="geometry" />
        </mxCell>
        <mxCell id="5W4om4V6GYRjGzkZguZI-16" value="" style="shape=partialRectangle;whiteSpace=wrap;html=1;right=0;top=0;bottom=0;fillColor=none;routingCenterX=-0.5;direction=south;rounded=1;" vertex="1" parent="1">
          <mxGeometry x="320" y="1260" width="40" height="10" as="geometry" />
        </mxCell>
        <mxCell id="5W4om4V6GYRjGzkZguZI-17" value="" style="shape=partialRectangle;whiteSpace=wrap;html=1;right=0;top=0;bottom=0;fillColor=none;routingCenterX=-0.5;direction=south;rounded=1;" vertex="1" parent="1">
          <mxGeometry x="320" y="1360" width="40" height="10" as="geometry" />
        </mxCell>
        <mxCell id="5W4om4V6GYRjGzkZguZI-18" value="notes" style="shape=module;align=left;spacingLeft=20;align=center;verticalAlign=top;whiteSpace=wrap;html=1;jettyWidth=19;jettyHeight=9;rounded=1;" vertex="1" parent="1">
          <mxGeometry x="870" y="200" width="100" height="30" as="geometry" />
        </mxCell>
        <mxCell id="5W4om4V6GYRjGzkZguZI-19" value="information" style="shape=module;align=left;spacingLeft=20;align=center;verticalAlign=top;whiteSpace=wrap;html=1;jettyWidth=19;jettyHeight=9;rounded=1;" vertex="1" parent="1">
          <mxGeometry x="370" y="40" width="100" height="30" as="geometry" />
        </mxCell>
        <mxCell id="5W4om4V6GYRjGzkZguZI-20" value="menu" style="shape=module;align=left;spacingLeft=20;align=center;verticalAlign=top;whiteSpace=wrap;html=1;jettyWidth=19;jettyHeight=9;rounded=1;" vertex="1" parent="1">
          <mxGeometry x="870" y="40" width="100" height="30" as="geometry" />
        </mxCell>
        <mxCell id="5W4om4V6GYRjGzkZguZI-21" value="sort" style="shape=module;align=left;spacingLeft=20;align=center;verticalAlign=top;whiteSpace=wrap;html=1;jettyWidth=19;jettyHeight=9;rounded=1;" vertex="1" parent="1">
          <mxGeometry x="1400" y="200" width="100" height="30" as="geometry" />
        </mxCell>
        <mxCell id="5W4om4V6GYRjGzkZguZI-22" value="prompt_tool" style="shape=module;align=left;spacingLeft=20;align=center;verticalAlign=top;whiteSpace=wrap;html=1;jettyWidth=19;jettyHeight=9;rounded=1;" vertex="1" parent="1">
          <mxGeometry x="590" y="40" width="100" height="30" as="geometry" />
        </mxCell>
        <mxCell id="5W4om4V6GYRjGzkZguZI-25" value="" style="edgeStyle=elbowEdgeStyle;elbow=horizontal;endArrow=classic;html=1;curved=0;rounded=1;endSize=8;startSize=8;exitX=1;exitY=0.5;exitDx=0;exitDy=0;exitPerimeter=0;entryX=0.856;entryY=1.04;entryDx=0;entryDy=0;entryPerimeter=0;" edge="1" parent="1" target="rjDYhwukZeS1M-eH8U-m-91">
          <mxGeometry width="50" height="50" relative="1" as="geometry">
            <mxPoint x="90" y="734.87" as="sourcePoint" />
            <mxPoint x="115" y="734.87" as="targetPoint" />
            <Array as="points">
              <mxPoint x="95" y="684.87" />
            </Array>
          </mxGeometry>
        </mxCell>
        <mxCell id="5W4om4V6GYRjGzkZguZI-32" value="NoteBook" style="swimlane;fontStyle=1;align=center;verticalAlign=top;childLayout=stackLayout;horizontal=1;startSize=30;horizontalStack=0;resizeParent=1;resizeParentMax=0;resizeLast=0;collapsible=1;marginBottom=0;whiteSpace=wrap;html=1;rounded=1;" vertex="1" parent="1">
          <mxGeometry x="960" y="420" width="240" height="248" as="geometry">
            <mxRectangle x="330" y="400" width="90" height="30" as="alternateBounds" />
          </mxGeometry>
        </mxCell>
        <mxCell id="5W4om4V6GYRjGzkZguZI-36" value="+&amp;nbsp;email&lt;span style=&quot;background-color: initial;&quot;&gt;:&amp;nbsp;&lt;/span&gt;Email" style="text;strokeColor=none;fillColor=none;align=left;verticalAlign=top;spacingLeft=4;spacingRight=4;overflow=hidden;rotatable=0;points=[[0,0.5],[1,0.5]];portConstraint=eastwest;whiteSpace=wrap;html=1;rounded=1;" vertex="1" parent="5W4om4V6GYRjGzkZguZI-32">
          <mxGeometry y="30" width="240" height="26" as="geometry" />
        </mxCell>
        <mxCell id="5W4om4V6GYRjGzkZguZI-38" value="" style="line;strokeWidth=1;fillColor=none;align=left;verticalAlign=middle;spacingTop=-1;spacingLeft=3;spacingRight=3;rotatable=0;labelPosition=right;points=[];portConstraint=eastwest;strokeColor=inherit;rounded=1;" vertex="1" parent="5W4om4V6GYRjGzkZguZI-32">
          <mxGeometry y="56" width="240" height="8" as="geometry" />
        </mxCell>
        <mxCell id="5W4om4V6GYRjGzkZguZI-39" value="+ add_note(Note&lt;span style=&quot;background-color: initial;&quot;&gt;): None&lt;/span&gt;" style="text;strokeColor=none;fillColor=none;align=left;verticalAlign=top;spacingLeft=4;spacingRight=4;overflow=hidden;rotatable=0;points=[[0,0.5],[1,0.5]];portConstraint=eastwest;whiteSpace=wrap;html=1;rounded=1;" vertex="1" parent="5W4om4V6GYRjGzkZguZI-32">
          <mxGeometry y="64" width="240" height="26" as="geometry" />
        </mxCell>
        <mxCell id="5W4om4V6GYRjGzkZguZI-40" value="+ change_note(Note, Note): None" style="text;strokeColor=none;fillColor=none;align=left;verticalAlign=top;spacingLeft=4;spacingRight=4;overflow=hidden;rotatable=0;points=[[0,0.5],[1,0.5]];portConstraint=eastwest;whiteSpace=wrap;html=1;rounded=1;" vertex="1" parent="5W4om4V6GYRjGzkZguZI-32">
          <mxGeometry y="90" width="240" height="26" as="geometry" />
        </mxCell>
        <mxCell id="5W4om4V6GYRjGzkZguZI-42" value="+ find(str): str" style="text;strokeColor=none;fillColor=none;align=left;verticalAlign=top;spacingLeft=4;spacingRight=4;overflow=hidden;rotatable=0;points=[[0,0.5],[1,0.5]];portConstraint=eastwest;whiteSpace=wrap;html=1;rounded=1;" vertex="1" parent="5W4om4V6GYRjGzkZguZI-32">
          <mxGeometry y="116" width="240" height="28" as="geometry" />
        </mxCell>
        <mxCell id="5W4om4V6GYRjGzkZguZI-43" value="+ find_sort_tags(list[Tags]): dict" style="text;strokeColor=none;fillColor=none;align=left;verticalAlign=top;spacingLeft=4;spacingRight=4;overflow=hidden;rotatable=0;points=[[0,0.5],[1,0.5]];portConstraint=eastwest;whiteSpace=wrap;html=1;rounded=1;" vertex="1" parent="5W4om4V6GYRjGzkZguZI-32">
          <mxGeometry y="144" width="240" height="26" as="geometry" />
        </mxCell>
        <mxCell id="5W4om4V6GYRjGzkZguZI-44" value="+ save_to_file(str): None" style="text;strokeColor=none;fillColor=none;align=left;verticalAlign=top;spacingLeft=4;spacingRight=4;overflow=hidden;rotatable=0;points=[[0,0.5],[1,0.5]];portConstraint=eastwest;whiteSpace=wrap;html=1;rounded=1;" vertex="1" parent="5W4om4V6GYRjGzkZguZI-32">
          <mxGeometry y="170" width="240" height="26" as="geometry" />
        </mxCell>
        <mxCell id="5W4om4V6GYRjGzkZguZI-45" value="+ note_iterator(int): str" style="text;strokeColor=none;fillColor=none;align=left;verticalAlign=top;spacingLeft=4;spacingRight=4;overflow=hidden;rotatable=0;points=[[0,0.5],[1,0.5]];portConstraint=eastwest;whiteSpace=wrap;html=1;rounded=1;" vertex="1" parent="5W4om4V6GYRjGzkZguZI-32">
          <mxGeometry y="196" width="240" height="26" as="geometry" />
        </mxCell>
        <mxCell id="rjDYhwukZeS1M-eH8U-m-9" value="+ del_note(Note&lt;span style=&quot;background-color: initial;&quot;&gt;): None&lt;/span&gt;" style="text;strokeColor=none;fillColor=none;align=left;verticalAlign=top;spacingLeft=4;spacingRight=4;overflow=hidden;rotatable=0;points=[[0,0.5],[1,0.5]];portConstraint=eastwest;whiteSpace=wrap;html=1;rounded=1;" vertex="1" parent="5W4om4V6GYRjGzkZguZI-32">
          <mxGeometry y="222" width="240" height="26" as="geometry" />
        </mxCell>
        <mxCell id="5W4om4V6GYRjGzkZguZI-46" value="UserDict" style="swimlane;fontStyle=1;align=center;verticalAlign=top;childLayout=stackLayout;horizontal=1;startSize=0;horizontalStack=0;resizeParent=1;resizeParentMax=0;resizeLast=0;collapsible=1;marginBottom=0;whiteSpace=wrap;html=1;rounded=1;" vertex="1" parent="1">
          <mxGeometry x="1000" y="360" width="160" height="30" as="geometry">
            <mxRectangle x="360" y="180" width="90" height="30" as="alternateBounds" />
          </mxGeometry>
        </mxCell>
        <mxCell id="rjDYhwukZeS1M-eH8U-m-1" value="Note" style="swimlane;fontStyle=1;align=center;verticalAlign=top;childLayout=stackLayout;horizontal=1;startSize=26;horizontalStack=0;resizeParent=1;resizeParentMax=0;resizeLast=0;collapsible=1;marginBottom=0;whiteSpace=wrap;html=1;rounded=1;" vertex="1" parent="1">
          <mxGeometry x="1000" y="695" width="160" height="132" as="geometry" />
        </mxCell>
        <mxCell id="rjDYhwukZeS1M-eH8U-m-2" value="+ title: Title" style="text;strokeColor=none;fillColor=none;align=left;verticalAlign=top;spacingLeft=4;spacingRight=4;overflow=hidden;rotatable=0;points=[[0,0.5],[1,0.5]];portConstraint=eastwest;whiteSpace=wrap;html=1;rounded=1;" vertex="1" parent="rjDYhwukZeS1M-eH8U-m-1">
          <mxGeometry y="26" width="160" height="24" as="geometry" />
        </mxCell>
        <mxCell id="rjDYhwukZeS1M-eH8U-m-6" value="+ tag: Tag" style="text;strokeColor=none;fillColor=none;align=left;verticalAlign=top;spacingLeft=4;spacingRight=4;overflow=hidden;rotatable=0;points=[[0,0.5],[1,0.5]];portConstraint=eastwest;whiteSpace=wrap;html=1;rounded=1;" vertex="1" parent="rjDYhwukZeS1M-eH8U-m-1">
          <mxGeometry y="50" width="160" height="24" as="geometry" />
        </mxCell>
        <mxCell id="rjDYhwukZeS1M-eH8U-m-7" value="+ body: Body" style="text;strokeColor=none;fillColor=none;align=left;verticalAlign=top;spacingLeft=4;spacingRight=4;overflow=hidden;rotatable=0;points=[[0,0.5],[1,0.5]];portConstraint=eastwest;whiteSpace=wrap;html=1;rounded=1;" vertex="1" parent="rjDYhwukZeS1M-eH8U-m-1">
          <mxGeometry y="74" width="160" height="24" as="geometry" />
        </mxCell>
        <mxCell id="rjDYhwukZeS1M-eH8U-m-3" value="" style="line;strokeWidth=1;fillColor=none;align=left;verticalAlign=middle;spacingTop=-1;spacingLeft=3;spacingRight=3;rotatable=0;labelPosition=right;points=[];portConstraint=eastwest;strokeColor=inherit;rounded=1;" vertex="1" parent="rjDYhwukZeS1M-eH8U-m-1">
          <mxGeometry y="98" width="160" height="8" as="geometry" />
        </mxCell>
        <mxCell id="rjDYhwukZeS1M-eH8U-m-8" value="+ add_tag(Tag): None" style="text;strokeColor=none;fillColor=none;align=left;verticalAlign=top;spacingLeft=4;spacingRight=4;overflow=hidden;rotatable=0;points=[[0,0.5],[1,0.5]];portConstraint=eastwest;whiteSpace=wrap;html=1;rounded=1;" vertex="1" parent="rjDYhwukZeS1M-eH8U-m-1">
          <mxGeometry y="106" width="160" height="26" as="geometry" />
        </mxCell>
        <mxCell id="rjDYhwukZeS1M-eH8U-m-11" value="def add_note()&amp;nbsp;" style="html=1;whiteSpace=wrap;rounded=1;" vertex="1" parent="1">
          <mxGeometry x="780" y="520" width="110" height="30" as="geometry" />
        </mxCell>
        <mxCell id="rjDYhwukZeS1M-eH8U-m-12" value="def change_note()&amp;nbsp;" style="html=1;whiteSpace=wrap;rounded=1;" vertex="1" parent="1">
          <mxGeometry x="780" y="600" width="110" height="30" as="geometry" />
        </mxCell>
        <mxCell id="rjDYhwukZeS1M-eH8U-m-13" value="def add_tag()&amp;nbsp;" style="html=1;whiteSpace=wrap;rounded=1;" vertex="1" parent="1">
          <mxGeometry x="780" y="640" width="110" height="30" as="geometry" />
        </mxCell>
        <mxCell id="rjDYhwukZeS1M-eH8U-m-14" value="def del_note()&amp;nbsp;" style="html=1;whiteSpace=wrap;rounded=1;" vertex="1" parent="1">
          <mxGeometry x="780" y="560" width="110" height="30" as="geometry" />
        </mxCell>
        <mxCell id="rjDYhwukZeS1M-eH8U-m-15" value="def find()&amp;nbsp;" style="html=1;whiteSpace=wrap;rounded=1;" vertex="1" parent="1">
          <mxGeometry x="780" y="680" width="110" height="30" as="geometry" />
        </mxCell>
        <mxCell id="rjDYhwukZeS1M-eH8U-m-16" value="def find_sort_tags()&amp;nbsp;" style="html=1;whiteSpace=wrap;rounded=1;" vertex="1" parent="1">
          <mxGeometry x="780" y="720" width="110" height="30" as="geometry" />
        </mxCell>
        <mxCell id="rjDYhwukZeS1M-eH8U-m-19" value="def show_all()&amp;nbsp;" style="html=1;whiteSpace=wrap;rounded=1;" vertex="1" parent="1">
          <mxGeometry x="780" y="760" width="110" height="30" as="geometry" />
        </mxCell>
        <mxCell id="rjDYhwukZeS1M-eH8U-m-21" value="def read_from_file()&amp;nbsp;" style="html=1;whiteSpace=wrap;rounded=1;" vertex="1" parent="1">
          <mxGeometry x="740" y="480" width="150" height="30" as="geometry" />
        </mxCell>
        <mxCell id="rjDYhwukZeS1M-eH8U-m-22" value="def decor_error()&amp;nbsp;" style="html=1;whiteSpace=wrap;rounded=1;" vertex="1" parent="1">
          <mxGeometry x="650" y="640" width="80" height="30" as="geometry" />
        </mxCell>
        <mxCell id="rjDYhwukZeS1M-eH8U-m-23" value="" style="line;strokeWidth=2;direction=south;html=1;rounded=1;" vertex="1" parent="1">
          <mxGeometry x="750" y="540" width="10" height="240" as="geometry" />
        </mxCell>
        <mxCell id="rjDYhwukZeS1M-eH8U-m-26" value="" style="edgeStyle=elbowEdgeStyle;elbow=horizontal;endArrow=classic;html=1;curved=0;rounded=1;endSize=8;startSize=8;exitX=1;exitY=0.5;exitDx=0;exitDy=0;exitPerimeter=0;" edge="1" parent="1">
          <mxGeometry width="50" height="50" relative="1" as="geometry">
            <mxPoint x="755" y="780" as="sourcePoint" />
            <mxPoint x="780" y="780" as="targetPoint" />
            <Array as="points">
              <mxPoint x="760" y="730" />
            </Array>
          </mxGeometry>
        </mxCell>
        <mxCell id="rjDYhwukZeS1M-eH8U-m-29" value="" style="edgeStyle=elbowEdgeStyle;elbow=horizontal;endArrow=classic;html=1;curved=0;rounded=1;endSize=8;startSize=8;exitX=1;exitY=0.5;exitDx=0;exitDy=0;exitPerimeter=0;" edge="1" parent="1">
          <mxGeometry width="50" height="50" relative="1" as="geometry">
            <mxPoint x="755" y="739.6" as="sourcePoint" />
            <mxPoint x="780" y="739.6" as="targetPoint" />
            <Array as="points">
              <mxPoint x="760" y="689.6" />
            </Array>
          </mxGeometry>
        </mxCell>
        <mxCell id="rjDYhwukZeS1M-eH8U-m-30" value="" style="edgeStyle=elbowEdgeStyle;elbow=horizontal;endArrow=classic;html=1;curved=0;rounded=1;endSize=8;startSize=8;exitX=1;exitY=0.5;exitDx=0;exitDy=0;exitPerimeter=0;" edge="1" parent="1">
          <mxGeometry width="50" height="50" relative="1" as="geometry">
            <mxPoint x="755" y="700" as="sourcePoint" />
            <mxPoint x="780" y="700" as="targetPoint" />
            <Array as="points">
              <mxPoint x="760" y="650" />
            </Array>
          </mxGeometry>
        </mxCell>
        <mxCell id="rjDYhwukZeS1M-eH8U-m-31" value="" style="edgeStyle=elbowEdgeStyle;elbow=horizontal;endArrow=classic;html=1;curved=0;rounded=1;endSize=8;startSize=8;exitX=1;exitY=0.5;exitDx=0;exitDy=0;exitPerimeter=0;" edge="1" parent="1">
          <mxGeometry width="50" height="50" relative="1" as="geometry">
            <mxPoint x="755" y="660" as="sourcePoint" />
            <mxPoint x="780" y="660" as="targetPoint" />
            <Array as="points">
              <mxPoint x="760" y="610" />
            </Array>
          </mxGeometry>
        </mxCell>
        <mxCell id="rjDYhwukZeS1M-eH8U-m-32" value="" style="edgeStyle=elbowEdgeStyle;elbow=horizontal;endArrow=classic;html=1;curved=0;rounded=1;endSize=8;startSize=8;exitX=1;exitY=0.5;exitDx=0;exitDy=0;exitPerimeter=0;" edge="1" parent="1">
          <mxGeometry width="50" height="50" relative="1" as="geometry">
            <mxPoint x="755" y="620" as="sourcePoint" />
            <mxPoint x="780" y="620" as="targetPoint" />
            <Array as="points">
              <mxPoint x="760" y="570" />
            </Array>
          </mxGeometry>
        </mxCell>
        <mxCell id="rjDYhwukZeS1M-eH8U-m-33" value="" style="edgeStyle=elbowEdgeStyle;elbow=horizontal;endArrow=classic;html=1;curved=0;rounded=1;endSize=8;startSize=8;exitX=1;exitY=0.5;exitDx=0;exitDy=0;exitPerimeter=0;" edge="1" parent="1">
          <mxGeometry width="50" height="50" relative="1" as="geometry">
            <mxPoint x="755" y="580" as="sourcePoint" />
            <mxPoint x="780" y="580" as="targetPoint" />
            <Array as="points">
              <mxPoint x="760" y="530" />
            </Array>
          </mxGeometry>
        </mxCell>
        <mxCell id="rjDYhwukZeS1M-eH8U-m-34" value="" style="edgeStyle=elbowEdgeStyle;elbow=horizontal;endArrow=classic;html=1;curved=0;rounded=1;endSize=8;startSize=8;exitX=1;exitY=0.5;exitDx=0;exitDy=0;exitPerimeter=0;" edge="1" parent="1">
          <mxGeometry width="50" height="50" relative="1" as="geometry">
            <mxPoint x="755" y="540" as="sourcePoint" />
            <mxPoint x="780" y="540" as="targetPoint" />
            <Array as="points">
              <mxPoint x="760" y="490" />
            </Array>
          </mxGeometry>
        </mxCell>
        <mxCell id="rjDYhwukZeS1M-eH8U-m-35" value="def parser_command()&amp;nbsp;" style="html=1;whiteSpace=wrap;rounded=1;" vertex="1" parent="1">
          <mxGeometry x="780" y="440" width="110" height="30" as="geometry" />
        </mxCell>
        <mxCell id="rjDYhwukZeS1M-eH8U-m-37" value="" style="edgeStyle=elbowEdgeStyle;elbow=horizontal;endArrow=classic;html=1;curved=0;rounded=1;endSize=8;startSize=8;exitX=1;exitY=0.5;exitDx=0;exitDy=0;entryX=0.481;entryY=0.564;entryDx=0;entryDy=0;entryPerimeter=0;" edge="1" parent="1" source="rjDYhwukZeS1M-eH8U-m-22" target="rjDYhwukZeS1M-eH8U-m-23">
          <mxGeometry width="50" height="50" relative="1" as="geometry">
            <mxPoint x="740" y="744.87" as="sourcePoint" />
            <mxPoint x="765" y="744.87" as="targetPoint" />
            <Array as="points">
              <mxPoint x="740" y="650" />
            </Array>
          </mxGeometry>
        </mxCell>
        <mxCell id="rjDYhwukZeS1M-eH8U-m-38" value="&lt;p style=&quot;margin:0px;margin-top:4px;text-align:center;&quot;&gt;&lt;/p&gt;&lt;div style=&quot;height:2px;&quot;&gt;&lt;b&gt;&amp;nbsp; &amp;nbsp; &amp;nbsp; &amp;nbsp; &amp;nbsp;Title&lt;/b&gt;&lt;/div&gt;" style="verticalAlign=top;align=left;overflow=fill;fontSize=12;fontFamily=Helvetica;html=1;whiteSpace=wrap;rounded=1;" vertex="1" parent="1">
          <mxGeometry x="940" y="870" width="80" height="20" as="geometry" />
        </mxCell>
        <mxCell id="rjDYhwukZeS1M-eH8U-m-39" value="&lt;p style=&quot;margin:0px;margin-top:4px;text-align:center;&quot;&gt;&lt;/p&gt;&lt;div style=&quot;height:2px;&quot;&gt;&lt;b&gt;&amp;nbsp; &amp;nbsp; &amp;nbsp; &amp;nbsp; &amp;nbsp;Tag&lt;/b&gt;&lt;/div&gt;" style="verticalAlign=top;align=left;overflow=fill;fontSize=12;fontFamily=Helvetica;html=1;whiteSpace=wrap;rounded=1;" vertex="1" parent="1">
          <mxGeometry x="1040" y="870" width="80" height="20" as="geometry" />
        </mxCell>
        <mxCell id="rjDYhwukZeS1M-eH8U-m-40" value="&lt;p style=&quot;margin:0px;margin-top:4px;text-align:center;&quot;&gt;&lt;/p&gt;&lt;div style=&quot;height:2px;&quot;&gt;&lt;b&gt;&amp;nbsp; &amp;nbsp; &amp;nbsp; &amp;nbsp; &amp;nbsp;Body&lt;/b&gt;&lt;/div&gt;" style="verticalAlign=top;align=left;overflow=fill;fontSize=12;fontFamily=Helvetica;html=1;whiteSpace=wrap;rounded=1;" vertex="1" parent="1">
          <mxGeometry x="1140" y="870" width="80" height="20" as="geometry" />
        </mxCell>
        <mxCell id="rjDYhwukZeS1M-eH8U-m-41" value="UserString" style="swimlane;fontStyle=1;align=center;verticalAlign=top;childLayout=stackLayout;horizontal=1;startSize=0;horizontalStack=0;resizeParent=1;resizeParentMax=0;resizeLast=0;collapsible=1;marginBottom=0;whiteSpace=wrap;html=1;rounded=1;" vertex="1" parent="1">
          <mxGeometry x="1000" y="940" width="160" height="30" as="geometry">
            <mxRectangle x="360" y="180" width="90" height="30" as="alternateBounds" />
          </mxGeometry>
        </mxCell>
        <mxCell id="rjDYhwukZeS1M-eH8U-m-47" value="" style="shape=partialRectangle;whiteSpace=wrap;html=1;top=0;left=0;fillColor=none;rounded=1;" vertex="1" parent="1">
          <mxGeometry x="1080" y="890" width="100" height="20" as="geometry" />
        </mxCell>
        <mxCell id="rjDYhwukZeS1M-eH8U-m-48" value="" style="shape=partialRectangle;whiteSpace=wrap;html=1;bottom=1;right=1;left=1;top=0;fillColor=none;routingCenterX=-0.5;rounded=1;" vertex="1" parent="1">
          <mxGeometry x="980" y="890" width="100" height="20" as="geometry" />
        </mxCell>
        <mxCell id="rjDYhwukZeS1M-eH8U-m-51" value="" style="endArrow=open;endFill=1;endSize=12;html=1;rounded=1;exitX=1;exitY=1;exitDx=0;exitDy=0;entryX=0.5;entryY=0;entryDx=0;entryDy=0;" edge="1" parent="1" source="rjDYhwukZeS1M-eH8U-m-48" target="rjDYhwukZeS1M-eH8U-m-41">
          <mxGeometry width="160" relative="1" as="geometry">
            <mxPoint x="1200" y="940" as="sourcePoint" />
            <mxPoint x="1200" y="910" as="targetPoint" />
            <Array as="points" />
          </mxGeometry>
        </mxCell>
        <mxCell id="rjDYhwukZeS1M-eH8U-m-52" value="" style="shape=partialRectangle;whiteSpace=wrap;html=1;bottom=1;right=1;left=1;top=0;fillColor=none;routingCenterX=-0.5;rounded=1;direction=west;" vertex="1" parent="1">
          <mxGeometry x="1080" y="860" width="100" height="10" as="geometry" />
        </mxCell>
        <mxCell id="rjDYhwukZeS1M-eH8U-m-53" value="" style="shape=partialRectangle;whiteSpace=wrap;html=1;bottom=0;right=0;fillColor=none;rounded=1;" vertex="1" parent="1">
          <mxGeometry x="980" y="860" width="100" height="10" as="geometry" />
        </mxCell>
        <mxCell id="rjDYhwukZeS1M-eH8U-m-54" value="" style="endArrow=open;html=1;endSize=12;startArrow=diamondThin;startSize=14;startFill=0;edgeStyle=orthogonalEdgeStyle;align=left;verticalAlign=bottom;rounded=1;entryX=1;entryY=1;entryDx=0;entryDy=0;exitX=0.504;exitY=1.01;exitDx=0;exitDy=0;exitPerimeter=0;" edge="1" parent="1" source="rjDYhwukZeS1M-eH8U-m-8" target="rjDYhwukZeS1M-eH8U-m-52">
          <mxGeometry x="-1" y="3" relative="1" as="geometry">
            <mxPoint x="1081" y="830" as="sourcePoint" />
            <mxPoint x="1180" y="850" as="targetPoint" />
            <Array as="points">
              <mxPoint x="1081" y="843" />
              <mxPoint x="1080" y="843" />
            </Array>
          </mxGeometry>
        </mxCell>
        <mxCell id="rjDYhwukZeS1M-eH8U-m-55" value="" style="endArrow=open;html=1;endSize=12;startArrow=diamondThin;startSize=14;startFill=0;edgeStyle=orthogonalEdgeStyle;align=left;verticalAlign=bottom;rounded=1;entryX=0.5;entryY=0;entryDx=0;entryDy=0;exitX=0.5;exitY=0.979;exitDx=0;exitDy=0;exitPerimeter=0;" edge="1" parent="1" source="rjDYhwukZeS1M-eH8U-m-9" target="rjDYhwukZeS1M-eH8U-m-1">
          <mxGeometry x="-1" y="3" relative="1" as="geometry">
            <mxPoint x="1080" y="670" as="sourcePoint" />
            <mxPoint x="1180" y="820" as="targetPoint" />
          </mxGeometry>
        </mxCell>
        <mxCell id="rjDYhwukZeS1M-eH8U-m-56" value="" style="endArrow=open;endFill=1;endSize=12;html=1;rounded=1;exitX=0.5;exitY=0;exitDx=0;exitDy=0;entryX=0.5;entryY=1;entryDx=0;entryDy=0;" edge="1" parent="1" source="5W4om4V6GYRjGzkZguZI-32" target="5W4om4V6GYRjGzkZguZI-46">
          <mxGeometry width="160" relative="1" as="geometry">
            <mxPoint x="680" y="490" as="sourcePoint" />
            <mxPoint x="840" y="490" as="targetPoint" />
          </mxGeometry>
        </mxCell>
        <mxCell id="rjDYhwukZeS1M-eH8U-m-57" value="def main()&amp;nbsp;" style="html=1;whiteSpace=wrap;rounded=1;" vertex="1" parent="1">
          <mxGeometry x="750" y="250" width="110" height="30" as="geometry" />
        </mxCell>
        <mxCell id="rjDYhwukZeS1M-eH8U-m-58" value="def exit_save_change()&amp;nbsp;" style="html=1;whiteSpace=wrap;rounded=1;" vertex="1" parent="1">
          <mxGeometry x="770" y="400" width="120" height="30" as="geometry" />
        </mxCell>
        <mxCell id="rjDYhwukZeS1M-eH8U-m-59" value="def normalize()&amp;nbsp;" style="html=1;whiteSpace=wrap;rounded=1;" vertex="1" parent="1">
          <mxGeometry x="1395" y="350" width="110" height="30" as="geometry" />
        </mxCell>
        <mxCell id="rjDYhwukZeS1M-eH8U-m-60" value="def sort_extensions()&amp;nbsp;" style="html=1;whiteSpace=wrap;rounded=1;" vertex="1" parent="1">
          <mxGeometry x="1395" y="430" width="110" height="30" as="geometry" />
        </mxCell>
        <mxCell id="rjDYhwukZeS1M-eH8U-m-61" value="def sort_archive()&amp;nbsp;" style="html=1;whiteSpace=wrap;rounded=1;" vertex="1" parent="1">
          <mxGeometry x="1395" y="470" width="110" height="30" as="geometry" />
        </mxCell>
        <mxCell id="rjDYhwukZeS1M-eH8U-m-62" value="def sort_dir()&amp;nbsp;" style="html=1;whiteSpace=wrap;rounded=1;" vertex="1" parent="1">
          <mxGeometry x="1395" y="390" width="110" height="30" as="geometry" />
        </mxCell>
        <mxCell id="rjDYhwukZeS1M-eH8U-m-63" value="def count_files()&amp;nbsp;" style="html=1;whiteSpace=wrap;rounded=1;" vertex="1" parent="1">
          <mxGeometry x="1395" y="510" width="110" height="30" as="geometry" />
        </mxCell>
        <mxCell id="rjDYhwukZeS1M-eH8U-m-76" value="def main()&amp;nbsp;" style="html=1;whiteSpace=wrap;rounded=1;" vertex="1" parent="1">
          <mxGeometry x="1395" y="260" width="110" height="30" as="geometry" />
        </mxCell>
        <mxCell id="rjDYhwukZeS1M-eH8U-m-79" value="" style="shape=partialRectangle;whiteSpace=wrap;html=1;bottom=0;right=0;fillColor=none;rounded=1;direction=south;" vertex="1" parent="1">
          <mxGeometry x="520" y="1080" width="40" height="100" as="geometry" />
        </mxCell>
        <mxCell id="rjDYhwukZeS1M-eH8U-m-80" value="" style="shape=partialRectangle;whiteSpace=wrap;html=1;bottom=0;right=0;fillColor=none;rounded=1;direction=south;" vertex="1" parent="1">
          <mxGeometry x="520" y="1180" width="40" height="100" as="geometry" />
        </mxCell>
        <mxCell id="rjDYhwukZeS1M-eH8U-m-82" value="" style="shape=partialRectangle;whiteSpace=wrap;html=1;bottom=1;right=1;left=1;top=0;fillColor=none;routingCenterX=-0.5;rounded=1;direction=north;" vertex="1" parent="1">
          <mxGeometry x="520" y="1280" width="40" height="100" as="geometry" />
        </mxCell>
        <mxCell id="rjDYhwukZeS1M-eH8U-m-85" value="" style="endArrow=open;html=1;endSize=12;startArrow=diamondThin;startSize=14;startFill=0;edgeStyle=orthogonalEdgeStyle;align=left;verticalAlign=bottom;rounded=1;exitX=1.007;exitY=0.038;exitDx=0;exitDy=0;exitPerimeter=0;entryX=0.5;entryY=0;entryDx=0;entryDy=0;" edge="1" parent="1" source="LnaQQmRgP3tKI7qRfTg0-12" target="rjDYhwukZeS1M-eH8U-m-80">
          <mxGeometry x="-1" y="3" relative="1" as="geometry">
            <mxPoint x="440" y="820" as="sourcePoint" />
            <mxPoint x="600" y="820" as="targetPoint" />
            <Array as="points">
              <mxPoint x="600" y="573" />
              <mxPoint x="600" y="1230" />
            </Array>
          </mxGeometry>
        </mxCell>
        <mxCell id="rjDYhwukZeS1M-eH8U-m-86" value="" style="shape=partialRectangle;whiteSpace=wrap;html=1;top=0;left=0;fillColor=none;rounded=1;direction=south;" vertex="1" parent="1">
          <mxGeometry x="120" y="900" width="20" height="40" as="geometry" />
        </mxCell>
        <mxCell id="rjDYhwukZeS1M-eH8U-m-87" value="" style="shape=partialRectangle;whiteSpace=wrap;html=1;top=0;left=0;fillColor=none;rounded=1;direction=south;" vertex="1" parent="1">
          <mxGeometry x="120" y="860" width="20" height="40" as="geometry" />
        </mxCell>
        <mxCell id="rjDYhwukZeS1M-eH8U-m-88" value="" style="shape=partialRectangle;whiteSpace=wrap;html=1;top=0;left=0;fillColor=none;rounded=1;direction=south;" vertex="1" parent="1">
          <mxGeometry x="120" y="820" width="20" height="40" as="geometry" />
        </mxCell>
        <mxCell id="rjDYhwukZeS1M-eH8U-m-89" value="" style="shape=partialRectangle;whiteSpace=wrap;html=1;top=0;left=0;fillColor=none;rounded=1;direction=south;" vertex="1" parent="1">
          <mxGeometry x="120" y="780" width="20" height="40" as="geometry" />
        </mxCell>
        <mxCell id="rjDYhwukZeS1M-eH8U-m-90" value="" style="shape=partialRectangle;whiteSpace=wrap;html=1;top=0;left=0;fillColor=none;rounded=1;direction=south;" vertex="1" parent="1">
          <mxGeometry x="120" y="741" width="20" height="40" as="geometry" />
        </mxCell>
        <mxCell id="rjDYhwukZeS1M-eH8U-m-91" value="" style="shape=partialRectangle;whiteSpace=wrap;html=1;top=0;left=0;fillColor=none;rounded=1;direction=south;" vertex="1" parent="1">
          <mxGeometry x="120" y="701" width="20" height="40" as="geometry" />
        </mxCell>
        <mxCell id="rjDYhwukZeS1M-eH8U-m-92" value="" style="shape=partialRectangle;whiteSpace=wrap;html=1;top=0;left=0;fillColor=none;rounded=1;direction=south;" vertex="1" parent="1">
          <mxGeometry x="120" y="661" width="20" height="40" as="geometry" />
        </mxCell>
        <mxCell id="rjDYhwukZeS1M-eH8U-m-93" value="" style="shape=partialRectangle;whiteSpace=wrap;html=1;top=0;left=0;fillColor=none;rounded=1;direction=south;" vertex="1" parent="1">
          <mxGeometry x="120" y="621" width="20" height="40" as="geometry" />
        </mxCell>
        <mxCell id="rjDYhwukZeS1M-eH8U-m-94" value="" style="shape=partialRectangle;whiteSpace=wrap;html=1;top=0;left=0;fillColor=none;rounded=1;direction=south;" vertex="1" parent="1">
          <mxGeometry x="120" y="581" width="20" height="40" as="geometry" />
        </mxCell>
        <mxCell id="rjDYhwukZeS1M-eH8U-m-95" value="" style="shape=partialRectangle;whiteSpace=wrap;html=1;bottom=1;right=1;left=1;top=0;fillColor=none;routingCenterX=-0.5;rounded=1;direction=south;" vertex="1" parent="1">
          <mxGeometry x="120" y="540" width="20" height="40" as="geometry" />
        </mxCell>
        <mxCell id="rjDYhwukZeS1M-eH8U-m-98" value="" style="shape=partialRectangle;whiteSpace=wrap;html=1;bottom=0;right=0;fillColor=none;rounded=1;" vertex="1" parent="1">
          <mxGeometry x="340" y="140" width="570" height="60" as="geometry" />
        </mxCell>
        <mxCell id="rjDYhwukZeS1M-eH8U-m-99" value="" style="shape=partialRectangle;whiteSpace=wrap;html=1;bottom=1;right=1;left=1;top=0;fillColor=none;routingCenterX=-0.5;rounded=1;direction=west;" vertex="1" parent="1">
          <mxGeometry x="920" y="140" width="530" height="60" as="geometry" />
        </mxCell>
        <mxCell id="rjDYhwukZeS1M-eH8U-m-100" value="" style="edgeStyle=segmentEdgeStyle;endArrow=classic;html=1;curved=0;rounded=0;endSize=8;startSize=8;exitX=1;exitY=1;exitDx=0;exitDy=0;entryX=0.5;entryY=1;entryDx=0;entryDy=0;" edge="1" parent="1" source="rjDYhwukZeS1M-eH8U-m-99" target="5W4om4V6GYRjGzkZguZI-20">
          <mxGeometry width="50" height="50" relative="1" as="geometry">
            <mxPoint x="930" y="190" as="sourcePoint" />
            <mxPoint x="980" y="140" as="targetPoint" />
          </mxGeometry>
        </mxCell>
        <mxCell id="rjDYhwukZeS1M-eH8U-m-101" value="" style="shape=partialRectangle;whiteSpace=wrap;html=1;bottom=0;right=0;fillColor=none;rounded=1;direction=south;" vertex="1" parent="1">
          <mxGeometry x="250" y="450" width="20" height="40" as="geometry" />
        </mxCell>
        <mxCell id="rjDYhwukZeS1M-eH8U-m-102" value="" style="shape=partialRectangle;whiteSpace=wrap;html=1;bottom=0;right=0;fillColor=none;rounded=1;direction=south;" vertex="1" parent="1">
          <mxGeometry x="250" y="490" width="20" height="40" as="geometry" />
        </mxCell>
        <mxCell id="rjDYhwukZeS1M-eH8U-m-103" value="" style="shape=partialRectangle;whiteSpace=wrap;html=1;bottom=0;right=0;fillColor=none;rounded=1;direction=south;" vertex="1" parent="1">
          <mxGeometry x="250" y="530" width="20" height="40" as="geometry" />
        </mxCell>
        <mxCell id="rjDYhwukZeS1M-eH8U-m-104" value="" style="shape=partialRectangle;whiteSpace=wrap;html=1;bottom=0;right=0;fillColor=none;rounded=1;direction=south;" vertex="1" parent="1">
          <mxGeometry x="250" y="570" width="20" height="40" as="geometry" />
        </mxCell>
        <mxCell id="rjDYhwukZeS1M-eH8U-m-105" value="" style="shape=partialRectangle;whiteSpace=wrap;html=1;bottom=0;right=0;fillColor=none;rounded=1;direction=south;" vertex="1" parent="1">
          <mxGeometry x="250" y="610" width="20" height="40" as="geometry" />
        </mxCell>
        <mxCell id="rjDYhwukZeS1M-eH8U-m-106" value="" style="shape=partialRectangle;whiteSpace=wrap;html=1;bottom=0;right=0;fillColor=none;rounded=1;direction=south;" vertex="1" parent="1">
          <mxGeometry x="250" y="650" width="20" height="40" as="geometry" />
        </mxCell>
        <mxCell id="rjDYhwukZeS1M-eH8U-m-107" value="" style="shape=partialRectangle;whiteSpace=wrap;html=1;bottom=0;right=0;fillColor=none;rounded=1;direction=south;" vertex="1" parent="1">
          <mxGeometry x="250" y="690" width="20" height="40" as="geometry" />
        </mxCell>
        <mxCell id="rjDYhwukZeS1M-eH8U-m-108" value="" style="shape=partialRectangle;whiteSpace=wrap;html=1;bottom=0;right=0;fillColor=none;rounded=1;direction=south;" vertex="1" parent="1">
          <mxGeometry x="250" y="730" width="20" height="40" as="geometry" />
        </mxCell>
        <mxCell id="rjDYhwukZeS1M-eH8U-m-109" value="" style="shape=partialRectangle;whiteSpace=wrap;html=1;bottom=0;right=0;fillColor=none;rounded=1;direction=south;" vertex="1" parent="1">
          <mxGeometry x="250" y="770" width="20" height="40" as="geometry" />
        </mxCell>
        <mxCell id="rjDYhwukZeS1M-eH8U-m-110" value="" style="shape=partialRectangle;whiteSpace=wrap;html=1;bottom=0;right=0;fillColor=none;rounded=1;direction=south;" vertex="1" parent="1">
          <mxGeometry x="250" y="810" width="20" height="40" as="geometry" />
        </mxCell>
        <mxCell id="rjDYhwukZeS1M-eH8U-m-111" value="" style="shape=partialRectangle;whiteSpace=wrap;html=1;bottom=0;right=0;fillColor=none;rounded=1;direction=south;" vertex="1" parent="1">
          <mxGeometry x="250" y="850" width="20" height="40" as="geometry" />
        </mxCell>
        <mxCell id="rjDYhwukZeS1M-eH8U-m-113" value="" style="shape=partialRectangle;whiteSpace=wrap;html=1;bottom=1;right=1;left=1;top=0;fillColor=none;routingCenterX=-0.5;rounded=1;direction=north;" vertex="1" parent="1">
          <mxGeometry x="250" y="890" width="20" height="40" as="geometry" />
        </mxCell>
        <mxCell id="rjDYhwukZeS1M-eH8U-m-116" value="" style="edgeStyle=segmentEdgeStyle;endArrow=classic;html=1;curved=0;rounded=0;endSize=8;startSize=8;exitX=1;exitY=0.25;exitDx=0;exitDy=0;entryX=0.336;entryY=0.953;entryDx=0;entryDy=0;entryPerimeter=0;" edge="1" parent="1" source="FLN5HcbIswn5sLi46URB-102" target="5W4om4V6GYRjGzkZguZI-2">
          <mxGeometry width="50" height="50" relative="1" as="geometry">
            <mxPoint x="490" y="450" as="sourcePoint" />
            <mxPoint x="540" y="400" as="targetPoint" />
          </mxGeometry>
        </mxCell>
        <mxCell id="rjDYhwukZeS1M-eH8U-m-117" value="" style="edgeStyle=segmentEdgeStyle;endArrow=classic;html=1;curved=0;rounded=0;endSize=8;startSize=8;exitX=0.25;exitY=0;exitDx=0;exitDy=0;entryX=1;entryY=0.5;entryDx=0;entryDy=0;" edge="1" parent="1" source="rjDYhwukZeS1M-eH8U-m-102" target="FLN5HcbIswn5sLi46URB-102">
          <mxGeometry width="50" height="50" relative="1" as="geometry">
            <mxPoint x="490" y="450" as="sourcePoint" />
            <mxPoint x="540" y="400" as="targetPoint" />
            <Array as="points">
              <mxPoint x="290" y="500" />
              <mxPoint x="290" y="265" />
            </Array>
          </mxGeometry>
        </mxCell>
        <mxCell id="rjDYhwukZeS1M-eH8U-m-118" value="" style="edgeStyle=segmentEdgeStyle;endArrow=classic;html=1;curved=0;rounded=0;endSize=8;startSize=8;exitX=0.5;exitY=0;exitDx=0;exitDy=0;entryX=0;entryY=0.333;entryDx=0;entryDy=0;entryPerimeter=0;" edge="1" parent="1" source="FLN5HcbIswn5sLi46URB-80" target="FLN5HcbIswn5sLi46URB-102">
          <mxGeometry width="50" height="50" relative="1" as="geometry">
            <mxPoint x="490" y="450" as="sourcePoint" />
            <mxPoint x="150" y="260" as="targetPoint" />
            <Array as="points">
              <mxPoint x="70" y="260" />
            </Array>
          </mxGeometry>
        </mxCell>
        <mxCell id="rjDYhwukZeS1M-eH8U-m-121" value="" style="edgeStyle=segmentEdgeStyle;endArrow=classic;html=1;curved=0;rounded=0;endSize=8;startSize=8;exitX=0.5;exitY=0;exitDx=0;exitDy=0;entryX=0.5;entryY=1;entryDx=0;entryDy=0;" edge="1" parent="1" source="FLN5HcbIswn5sLi46URB-81" target="FLN5HcbIswn5sLi46URB-80">
          <mxGeometry width="50" height="50" relative="1" as="geometry">
            <mxPoint x="470" y="300" as="sourcePoint" />
            <mxPoint x="520" y="250" as="targetPoint" />
          </mxGeometry>
        </mxCell>
        <mxCell id="rjDYhwukZeS1M-eH8U-m-123" value="" style="shape=partialRectangle;whiteSpace=wrap;html=1;bottom=0;right=0;fillColor=none;rounded=1;direction=south;" vertex="1" parent="1">
          <mxGeometry x="250" y="580" width="40" height="40" as="geometry" />
        </mxCell>
        <mxCell id="rjDYhwukZeS1M-eH8U-m-124" value="" style="shape=partialRectangle;whiteSpace=wrap;html=1;bottom=0;right=0;fillColor=none;rounded=1;direction=south;" vertex="1" parent="1">
          <mxGeometry x="250" y="620" width="40" height="40" as="geometry" />
        </mxCell>
        <mxCell id="rjDYhwukZeS1M-eH8U-m-125" value="" style="shape=partialRectangle;whiteSpace=wrap;html=1;bottom=0;right=0;fillColor=none;rounded=1;direction=south;" vertex="1" parent="1">
          <mxGeometry x="250" y="661" width="40" height="40" as="geometry" />
        </mxCell>
        <mxCell id="rjDYhwukZeS1M-eH8U-m-126" value="" style="shape=partialRectangle;whiteSpace=wrap;html=1;bottom=0;right=0;fillColor=none;rounded=1;direction=south;" vertex="1" parent="1">
          <mxGeometry x="250" y="701" width="40" height="40" as="geometry" />
        </mxCell>
        <mxCell id="rjDYhwukZeS1M-eH8U-m-127" value="" style="shape=partialRectangle;whiteSpace=wrap;html=1;bottom=0;right=0;fillColor=none;rounded=1;direction=south;" vertex="1" parent="1">
          <mxGeometry x="250" y="740" width="40" height="40" as="geometry" />
        </mxCell>
        <mxCell id="rjDYhwukZeS1M-eH8U-m-128" value="" style="shape=partialRectangle;whiteSpace=wrap;html=1;bottom=0;right=0;fillColor=none;rounded=1;direction=south;" vertex="1" parent="1">
          <mxGeometry x="250" y="780" width="40" height="40" as="geometry" />
        </mxCell>
        <mxCell id="rjDYhwukZeS1M-eH8U-m-129" value="" style="shape=partialRectangle;whiteSpace=wrap;html=1;bottom=0;right=0;fillColor=none;rounded=1;direction=south;" vertex="1" parent="1">
          <mxGeometry x="250" y="820" width="40" height="40" as="geometry" />
        </mxCell>
        <mxCell id="rjDYhwukZeS1M-eH8U-m-130" value="" style="shape=partialRectangle;whiteSpace=wrap;html=1;bottom=0;right=0;fillColor=none;rounded=1;direction=south;" vertex="1" parent="1">
          <mxGeometry x="250" y="860" width="40" height="40" as="geometry" />
        </mxCell>
        <mxCell id="rjDYhwukZeS1M-eH8U-m-132" value="" style="shape=partialRectangle;whiteSpace=wrap;html=1;bottom=1;right=1;left=1;top=0;fillColor=none;routingCenterX=-0.5;rounded=1;direction=north;" vertex="1" parent="1">
          <mxGeometry x="250" y="900" width="40" height="40" as="geometry" />
        </mxCell>
        <mxCell id="rjDYhwukZeS1M-eH8U-m-133" value="" style="edgeStyle=segmentEdgeStyle;endArrow=classic;html=1;curved=0;rounded=0;endSize=8;startSize=8;exitX=0.75;exitY=0;exitDx=0;exitDy=0;entryX=0;entryY=0.25;entryDx=0;entryDy=0;" edge="1" parent="1" source="rjDYhwukZeS1M-eH8U-m-126" target="LnaQQmRgP3tKI7qRfTg0-1">
          <mxGeometry width="50" height="50" relative="1" as="geometry">
            <mxPoint x="330" y="730" as="sourcePoint" />
            <mxPoint x="310" y="540" as="targetPoint" />
            <Array as="points">
              <mxPoint x="300" y="731" />
              <mxPoint x="300" y="440" />
            </Array>
          </mxGeometry>
        </mxCell>
        <mxCell id="rjDYhwukZeS1M-eH8U-m-134" value="" style="edgeStyle=segmentEdgeStyle;endArrow=classic;html=1;curved=0;rounded=0;endSize=8;startSize=8;entryX=-0.003;entryY=0.06;entryDx=0;entryDy=0;entryPerimeter=0;" edge="1" parent="1" target="LnaQQmRgP3tKI7qRfTg0-12">
          <mxGeometry width="50" height="50" relative="1" as="geometry">
            <mxPoint x="300" y="581" as="sourcePoint" />
            <mxPoint x="380" y="600" as="targetPoint" />
          </mxGeometry>
        </mxCell>
        <mxCell id="rjDYhwukZeS1M-eH8U-m-135" value="" style="edgeStyle=segmentEdgeStyle;endArrow=classic;html=1;curved=0;rounded=0;endSize=8;startSize=8;exitX=0.431;exitY=0;exitDx=0;exitDy=0;exitPerimeter=0;entryX=0.432;entryY=1.015;entryDx=0;entryDy=0;entryPerimeter=0;" edge="1" parent="1" source="FLN5HcbIswn5sLi46URB-102" target="5W4om4V6GYRjGzkZguZI-19">
          <mxGeometry width="50" height="50" relative="1" as="geometry">
            <mxPoint x="330" y="170" as="sourcePoint" />
            <mxPoint x="440" y="100" as="targetPoint" />
            <Array as="points">
              <mxPoint x="217" y="100" />
              <mxPoint x="413" y="100" />
            </Array>
          </mxGeometry>
        </mxCell>
        <mxCell id="rjDYhwukZeS1M-eH8U-m-136" value="" style="edgeStyle=segmentEdgeStyle;endArrow=classic;html=1;curved=0;rounded=0;endSize=8;startSize=8;" edge="1" parent="1">
          <mxGeometry width="50" height="50" relative="1" as="geometry">
            <mxPoint x="410" y="100" as="sourcePoint" />
            <mxPoint x="630" y="72" as="targetPoint" />
            <Array as="points">
              <mxPoint x="630" y="100" />
              <mxPoint x="630" y="72" />
            </Array>
          </mxGeometry>
        </mxCell>
        <mxCell id="rjDYhwukZeS1M-eH8U-m-139" value="" style="edgeStyle=segmentEdgeStyle;endArrow=classic;html=1;curved=0;rounded=0;endSize=8;startSize=8;exitX=0.5;exitY=0;exitDx=0;exitDy=0;entryX=0.5;entryY=1;entryDx=0;entryDy=0;" edge="1" parent="1" source="rjDYhwukZeS1M-eH8U-m-76" target="5W4om4V6GYRjGzkZguZI-21">
          <mxGeometry width="50" height="50" relative="1" as="geometry">
            <mxPoint x="1330" y="250" as="sourcePoint" />
            <mxPoint x="1380" y="200" as="targetPoint" />
          </mxGeometry>
        </mxCell>
        <mxCell id="rjDYhwukZeS1M-eH8U-m-140" value="" style="shape=partialRectangle;whiteSpace=wrap;html=1;bottom=0;right=0;fillColor=none;rounded=1;direction=south;" vertex="1" parent="1">
          <mxGeometry x="1505" y="360" width="15" height="40" as="geometry" />
        </mxCell>
        <mxCell id="rjDYhwukZeS1M-eH8U-m-141" value="" style="shape=partialRectangle;whiteSpace=wrap;html=1;bottom=0;right=0;fillColor=none;rounded=1;direction=south;" vertex="1" parent="1">
          <mxGeometry x="1505" y="400" width="15" height="40" as="geometry" />
        </mxCell>
        <mxCell id="rjDYhwukZeS1M-eH8U-m-142" value="" style="shape=partialRectangle;whiteSpace=wrap;html=1;bottom=0;right=0;fillColor=none;rounded=1;direction=south;" vertex="1" parent="1">
          <mxGeometry x="1505" y="440" width="15" height="40" as="geometry" />
        </mxCell>
        <mxCell id="rjDYhwukZeS1M-eH8U-m-143" value="" style="shape=partialRectangle;whiteSpace=wrap;html=1;bottom=1;right=1;left=1;top=0;fillColor=none;routingCenterX=-0.5;rounded=1;direction=north;" vertex="1" parent="1">
          <mxGeometry x="1505" y="480" width="15" height="40" as="geometry" />
        </mxCell>
        <mxCell id="rjDYhwukZeS1M-eH8U-m-144" value="" style="edgeStyle=segmentEdgeStyle;endArrow=classic;html=1;curved=0;rounded=0;endSize=8;startSize=8;exitX=0.75;exitY=0;exitDx=0;exitDy=0;entryX=1;entryY=0.75;entryDx=0;entryDy=0;" edge="1" parent="1" source="rjDYhwukZeS1M-eH8U-m-141" target="rjDYhwukZeS1M-eH8U-m-76">
          <mxGeometry width="50" height="50" relative="1" as="geometry">
            <mxPoint x="1550" y="410" as="sourcePoint" />
            <mxPoint x="1600" y="360" as="targetPoint" />
            <Array as="points">
              <mxPoint x="1550" y="430" />
              <mxPoint x="1550" y="283" />
              <mxPoint x="1540" y="283" />
            </Array>
          </mxGeometry>
        </mxCell>
        <mxCell id="rjDYhwukZeS1M-eH8U-m-145" value="" style="edgeStyle=segmentEdgeStyle;endArrow=classic;html=1;curved=0;rounded=0;endSize=8;startSize=8;exitX=0.5;exitY=1;exitDx=0;exitDy=0;entryX=1;entryY=0.25;entryDx=0;entryDy=0;" edge="1" parent="1" source="5W4om4V6GYRjGzkZguZI-18" target="rjDYhwukZeS1M-eH8U-m-57">
          <mxGeometry width="50" height="50" relative="1" as="geometry">
            <mxPoint x="1060" y="170" as="sourcePoint" />
            <mxPoint x="1110" y="120" as="targetPoint" />
            <Array as="points">
              <mxPoint x="920" y="257" />
            </Array>
          </mxGeometry>
        </mxCell>
        <mxCell id="rjDYhwukZeS1M-eH8U-m-146" value="" style="shape=partialRectangle;whiteSpace=wrap;html=1;bottom=0;right=0;fillColor=none;rounded=1;direction=south;" vertex="1" parent="1">
          <mxGeometry x="890" y="410" width="20" height="40" as="geometry" />
        </mxCell>
        <mxCell id="rjDYhwukZeS1M-eH8U-m-147" value="" style="shape=partialRectangle;whiteSpace=wrap;html=1;bottom=0;right=0;fillColor=none;rounded=1;direction=south;" vertex="1" parent="1">
          <mxGeometry x="890" y="450" width="20" height="40" as="geometry" />
        </mxCell>
        <mxCell id="rjDYhwukZeS1M-eH8U-m-148" value="" style="shape=partialRectangle;whiteSpace=wrap;html=1;bottom=0;right=0;fillColor=none;rounded=1;direction=south;" vertex="1" parent="1">
          <mxGeometry x="890" y="490" width="20" height="40" as="geometry" />
        </mxCell>
        <mxCell id="rjDYhwukZeS1M-eH8U-m-149" value="" style="shape=partialRectangle;whiteSpace=wrap;html=1;bottom=0;right=0;fillColor=none;rounded=1;direction=south;" vertex="1" parent="1">
          <mxGeometry x="890" y="530" width="20" height="40" as="geometry" />
        </mxCell>
        <mxCell id="rjDYhwukZeS1M-eH8U-m-150" value="" style="shape=partialRectangle;whiteSpace=wrap;html=1;bottom=0;right=0;fillColor=none;rounded=1;direction=south;" vertex="1" parent="1">
          <mxGeometry x="890" y="570" width="20" height="40" as="geometry" />
        </mxCell>
        <mxCell id="rjDYhwukZeS1M-eH8U-m-151" value="" style="shape=partialRectangle;whiteSpace=wrap;html=1;bottom=0;right=0;fillColor=none;rounded=1;direction=south;" vertex="1" parent="1">
          <mxGeometry x="890" y="610" width="20" height="40" as="geometry" />
        </mxCell>
        <mxCell id="rjDYhwukZeS1M-eH8U-m-152" value="" style="shape=partialRectangle;whiteSpace=wrap;html=1;bottom=0;right=0;fillColor=none;rounded=1;direction=south;" vertex="1" parent="1">
          <mxGeometry x="890" y="650" width="20" height="40" as="geometry" />
        </mxCell>
        <mxCell id="rjDYhwukZeS1M-eH8U-m-153" value="" style="shape=partialRectangle;whiteSpace=wrap;html=1;bottom=0;right=0;fillColor=none;rounded=1;direction=south;" vertex="1" parent="1">
          <mxGeometry x="890" y="690" width="20" height="40" as="geometry" />
        </mxCell>
        <mxCell id="rjDYhwukZeS1M-eH8U-m-154" value="" style="shape=partialRectangle;whiteSpace=wrap;html=1;bottom=1;right=1;left=1;top=0;fillColor=none;routingCenterX=-0.5;rounded=1;direction=north;" vertex="1" parent="1">
          <mxGeometry x="890" y="730" width="20" height="40" as="geometry" />
        </mxCell>
        <mxCell id="rjDYhwukZeS1M-eH8U-m-155" value="" style="edgeStyle=segmentEdgeStyle;endArrow=classic;html=1;curved=0;rounded=0;endSize=8;startSize=8;exitX=0.25;exitY=0;exitDx=0;exitDy=0;entryX=0.638;entryY=0.995;entryDx=0;entryDy=0;entryPerimeter=0;" edge="1" parent="1" source="rjDYhwukZeS1M-eH8U-m-147" target="rjDYhwukZeS1M-eH8U-m-57">
          <mxGeometry width="50" height="50" relative="1" as="geometry">
            <mxPoint x="1060" y="330" as="sourcePoint" />
            <mxPoint x="820" y="290" as="targetPoint" />
            <Array as="points">
              <mxPoint x="930" y="460" />
              <mxPoint x="930" y="320" />
              <mxPoint x="820" y="320" />
            </Array>
          </mxGeometry>
        </mxCell>
        <mxCell id="rjDYhwukZeS1M-eH8U-m-156" value="" style="edgeStyle=segmentEdgeStyle;endArrow=classic;html=1;curved=0;rounded=0;endSize=8;startSize=8;exitX=0.456;exitY=-0.042;exitDx=0;exitDy=0;exitPerimeter=0;" edge="1" parent="1" source="rjDYhwukZeS1M-eH8U-m-57" target="5W4om4V6GYRjGzkZguZI-19">
          <mxGeometry width="50" height="50" relative="1" as="geometry">
            <mxPoint x="650" y="190" as="sourcePoint" />
            <mxPoint x="700" y="140" as="targetPoint" />
            <Array as="points">
              <mxPoint x="799" y="249" />
              <mxPoint x="799" y="120" />
              <mxPoint x="436" y="120" />
            </Array>
          </mxGeometry>
        </mxCell>
        <mxCell id="rjDYhwukZeS1M-eH8U-m-158" value="" style="edgeStyle=segmentEdgeStyle;endArrow=classic;html=1;curved=0;rounded=0;endSize=8;startSize=8;entryX=0.8;entryY=1;entryDx=0;entryDy=0;entryPerimeter=0;" edge="1" parent="1" target="5W4om4V6GYRjGzkZguZI-22">
          <mxGeometry width="50" height="50" relative="1" as="geometry">
            <mxPoint x="640" y="120" as="sourcePoint" />
            <mxPoint x="700" y="10" as="targetPoint" />
          </mxGeometry>
        </mxCell>
      </root>
    </mxGraphModel>
  </diagram>
</mxfile>
